<?xml version="1.0" encoding="iso-8859-1"?>
<!-- Uploaded to: SVG Repo, www.svgrepo.com, Generator: SVG Repo Mixer Tools -->
<svg height="800px" width="800px" version="1.1" id="Layer_1" xmlns="http://www.w3.org/2000/svg" xmlns:xlink="http://www.w3.org/1999/xlink" 
	 viewBox="0 0 512 512" xml:space="preserve">
<path style="fill:#477777;" d="M215.806,76.263v66.121H48.52V76.263c0-26.77,21.764-48.533,48.533-48.533h70.219
	C194.043,27.73,215.806,49.493,215.806,76.263z"/>
<path style="fill:#437171;" d="M215.806,76.263v66.121h-83.643V27.73h35.11C194.043,27.73,215.806,49.493,215.806,76.263z"/>
<path style="fill:#477777;" d="M460.73,93.941v48.443H344.455V93.941c0-19.974,16.251-36.225,36.225-36.225h43.825
	C444.479,57.716,460.73,73.967,460.73,93.941z"/>
<path style="fill:#437171;" d="M460.73,93.941v48.443h-58.131V57.716h21.906C444.479,57.716,460.73,73.967,460.73,93.941z"/>
<path style="fill:#F5888E;" d="M512,168.051V419.68c0,35.615-28.962,64.59-64.577,64.59H64.59C28.975,484.27,0,455.296,0,419.68
	V179.646c0-41.997,34.176-76.172,76.185-76.172h371.238C483.038,103.474,512,132.449,512,168.051z"/>
<path style="fill:#F76976;" d="M512,168.051V419.68c0,35.615-28.962,64.59-64.577,64.59H256V103.474h191.423
	C483.038,103.474,512,132.449,512,168.051z"/>
<path style="fill:#477777;" d="M366.802,295.169c0,61.088-49.701,110.789-110.802,110.789c-61.088,0-110.789-49.701-110.789-110.789
	c0-61.101,49.701-110.802,110.789-110.802C317.101,184.367,366.802,234.068,366.802,295.169z"/>
<g>
	<path style="fill:#437171;" d="M420.365,168.688c-12.656,0-22.953,10.297-22.953,22.953c0,12.657,10.297,22.954,22.953,22.954
		c12.657,0,22.954-10.297,22.954-22.954C443.319,178.985,433.022,168.688,420.365,168.688z"/>
	<path style="fill:#437171;" d="M366.802,295.169c0,61.088-49.701,110.789-110.802,110.789V184.367
		C317.101,184.367,366.802,234.068,366.802,295.169z"/>
</g>
</svg>